<?xml version="1.0" standalone="no"?>
<!DOCTYPE svg PUBLIC "-//W3C//DTD SVG 1.0//EN" "http://www.w3.org/TR/2001/REC-SVG-20010904/DTD/svg10.dtd">
<svg xmlns="http://www.w3.org/2000/svg" xmlns:xlink="http://www.w3.org/1999/xlink" id="body_1" width="56" height="38">

<g transform="matrix(0.40000004 0 0 0.40000004 -0 0.40000004)">
	<g transform="matrix(0.1 0 -0 -0.1 0 94)">
        <path d="M440 188C 440 179 449 161 460 147C 471 133 480 119 480 116C 480 113 460 110 435 110C 401 110 387 115 378 130C 364 151 344 158 356 138C 360 130 359 128 354 133C 349 138 345 147 345 153C 345 160 337 166 328 168C 302 173 306 155 335 132C 367 106 367 100 330 100C 308 100 297 107 286 128C 269 161 242 186 234 177C 230 174 237 155 248 135L248 135L269 100L240 100C 221 100 209 106 205 119C 198 141 162 176 154 168C 151 164 155 148 164 132C 179 103 179 102 157 107C 145 110 128 122 119 133C 101 155 77 148 82 123C 84 114 98 106 117 105C 134 104 159 95 172 85C 187 73 189 69 177 74C 165 78 161 76 166 68C 171 60 168 59 157 63C 148 66 138 65 135 60C 126 45 163 48 186 64C 204 77 270 84 270 73C 270 71 254 62 234 54C 214 46 200 37 203 34C 210 27 263 55 279 74C 287 83 304 90 317 90C 340 90 341 88 329 73C 317 59 319 59 343 75C 358 85 373 90 376 87C 383 80 329 39 320 45C 315 48 309 46 305 40C 297 27 313 27 343 41C 357 47 374 63 381 76C 392 97 400 100 436 98C 476 95 478 94 463 78C 443 56 422 54 440 75C 447 83 449 90 445 90C 436 90 411 59 410 48C 410 32 430 41 463 70C 487 91 508 100 531 100L531 100L565 99L528 80C 491 60 474 43 483 33C 489 28 563 61 593 82C 608 93 617 91 650 73C 672 61 687 56 684 62C 680 68 658 81 634 91C 611 102 588 119 585 130C 582 141 574 149 568 147C 562 146 555 151 552 159C 549 168 552 170 561 165C 569 160 566 167 555 179C 526 213 522 180 550 140L550 140L571 110L541 110C 517 110 507 117 495 140C 486 158 474 168 468 164C 462 160 460 161 463 167C 467 173 463 183 455 190C 443 200 440 200 440 188zM270 140C 276 129 278 120 276 120C 273 120 266 129 260 140C 254 151 252 160 254 160C 257 160 264 151 270 140zM191 128C 202 107 202 106 187 119C 177 126 170 136 170 141C 170 156 179 151 191 128zM547 64C 531 55 516 51 513 54C 510 57 518 64 531 69C 568 84 578 81 547 64z" stroke="none" fill="#000000" fill-rule="nonzero" />
        <path d="M854 183C 845 173 831 151 823 133C 816 115 803 100 794 100C 773 100 722 70 716 54C 713 47 727 52 747 66C 790 95 811 96 835 70C 854 49 918 24 928 34C 936 43 920 57 875 79L875 79L835 99L923 98C 971 97 1013 93 1016 88C 1019 83 1026 82 1031 86C 1037 89 1052 82 1066 69C 1079 57 1090 52 1090 58C 1090 64 1082 74 1073 79C 1057 88 1059 89 1082 90C 1097 90 1112 86 1115 80C 1118 75 1137 72 1156 75C 1179 78 1204 73 1228 60C 1271 36 1281 35 1274 54C 1271 62 1261 66 1250 63C 1240 60 1229 63 1226 69C 1217 83 1283 110 1309 103C 1325 99 1330 102 1330 118C 1330 145 1305 153 1288 130C 1281 120 1264 109 1252 105C 1229 98 1228 98 1246 124C 1267 156 1257 170 1231 146C 1220 136 1214 121 1217 112C 1221 102 1219 99 1212 104C 1205 108 1200 106 1200 101C 1200 95 1187 90 1170 90C 1137 90 1133 96 1154 119C 1172 141 1184 180 1171 180C 1158 180 1120 131 1120 114C 1120 104 1107 100 1078 100C 1041 101 1038 102 1055 112C 1077 124 1100 149 1100 162C 1100 180 1072 168 1045 140C 1022 116 1008 110 973 110C 949 110 930 113 930 116C 930 119 939 133 950 147C 961 161 970 180 970 188C 970 208 934 176 914 138C 902 115 893 110 864 110L864 110L828 110L854 141C 868 158 880 178 880 186C 880 204 875 204 854 183zM860 159C 853 148 846 141 843 144C 840 147 843 156 850 165C 868 186 873 184 860 159zM1146 132C 1128 116 1128 116 1140 138C 1146 151 1154 159 1158 156C 1161 152 1156 142 1146 132zM895 59C 911 43 876 50 855 66C 836 82 836 82 860 75C 874 71 889 64 895 59z" stroke="none" fill="#000000" fill-rule="nonzero" />
        <path d="M971 73C 983 58 983 57 965 63C 945 70 945 70 964 55C 985 39 1000 36 1000 48C 999 59 974 90 965 90C 961 90 964 82 971 73z" stroke="none" fill="#000000" fill-rule="nonzero" />
        <path d="M1050 51C 1076 29 1116 22 1105 41C 1101 47 1096 49 1093 46C 1090 43 1073 48 1056 56L1056 56L1025 71L1050 51z" stroke="none" fill="#000000" fill-rule="nonzero" />
        <path d="M1163 48C 1174 38 1189 30 1198 30C 1211 30 1210 33 1195 50C 1176 71 1165 77 1175 60C 1182 48 1168 47 1154 58C 1149 62 1153 57 1163 48z" stroke="none" fill="#000000" fill-rule="nonzero" />
	</g>
</g>
</svg>